<?xml version="1.0" standalone="no"?>
<!DOCTYPE svg PUBLIC "-//W3C//DTD SVG 20010904//EN"
 "http://www.w3.org/TR/2001/REC-SVG-20010904/DTD/svg10.dtd">
<svg version="1.0" xmlns="http://www.w3.org/2000/svg"
 width="512.000000pt" height="512.000000pt" viewBox="0 0 512.000000 512.000000"
 preserveAspectRatio="xMidYMid meet">
<metadata>
Created by potrace 1.11, written by Peter Selinger 2001-2013
</metadata>
<g transform="translate(0.000000,512.000000) scale(0.100000,-0.100000)"
fill="#000000" stroke="none">
<path d="M3970 4393 c-323 -52 -674 -228 -1038 -520 -106 -85 -139 -114 -251
-220 l-65 -62 -66 64 c-108 104 -396 335 -419 335 -5 0 -11 3 -13 8 -3 7 -96
70 -151 101 -117 67 -163 92 -253 133 -215 101 -400 148 -599 154 -243 7 -418
-50 -625 -202 -195 -143 -330 -345 -358 -534 -14 -95 -6 -282 17 -375 51 -213
179 -480 329 -690 106 -148 236 -316 287 -371 5 -6 37 -42 70 -80 61 -71 481
-493 571 -574 27 -25 99 -88 159 -140 61 -52 112 -97 115 -100 6 -7 171 -143
227 -188 23 -19 52 -42 65 -53 13 -10 28 -22 33 -26 6 -5 51 -40 100 -79 50
-39 144 -111 210 -160 66 -49 122 -91 125 -94 3 -3 12 -9 22 -15 9 -5 45 -30
80 -55 34 -25 68 -49 74 -53 10 -6 135 91 284 221 134 118 256 227 295 262 22
21 72 66 110 101 110 101 551 544 650 653 50 55 97 107 106 116 54 56 260 309
359 442 288 384 479 754 530 1028 36 191 9 429 -62 532 -10 14 -18 29 -18 34
0 4 -17 28 -37 53 -120 151 -335 290 -518 336 -66 17 -282 28 -345 18z"/>
</g>
</svg>
